<svg height="2686" width="720" xmlns="http://www.w3.org/2000/svg">
<rect height="2686" fill="#555" width="720"></rect>
<text fill="#7f7" font-family="Courier New" font-size="12" xml:space="preserve">
<tspan x="10" y="26">25 megabytes installed</tspan>
<tspan x="10" y="42"></tspan>
<tspan x="10" y="58">node_modules</tspan>
<tspan x="10" y="74">└─┬ nodejs-dashboard@0.4.1 </tspan>
<tspan x="10" y="90">  ├── blessed@0.1.81 </tspan>
<tspan x="10" y="106">  ├─┬ blessed-contrib@3.5.5 </tspan>
<tspan x="10" y="122">  │ ├── ansi-term@0.0.2 </tspan>
<tspan x="10" y="138">  │ ├─┬ chalk@1.1.3 </tspan>
<tspan x="10" y="154">  │ │ ├── ansi-styles@2.2.1 </tspan>
<tspan x="10" y="170">  │ │ ├── escape-string-regexp@1.0.5 </tspan>
<tspan x="10" y="186">  │ │ ├── has-ansi@2.0.0 </tspan>
<tspan x="10" y="202">  │ │ └── supports-color@2.0.0 </tspan>
<tspan x="10" y="218">  │ ├─┬ drawille-canvas-blessed-contrib@0.1.3 </tspan>
<tspan x="10" y="234">  │ │ ├── bresenham@0.0.3 </tspan>
<tspan x="10" y="250">  │ │ ├── drawille-blessed-contrib@1.0.0 </tspan>
<tspan x="10" y="266">  │ │ └── gl-matrix@2.3.2 </tspan>
<tspan x="10" y="282">  │ ├─┬ map-canvas@0.1.5 </tspan>
<tspan x="10" y="298">  │ │ └─┬ xml2js@0.4.17 </tspan>
<tspan x="10" y="314">  │ │   ├── sax@1.2.2 </tspan>
<tspan x="10" y="330">  │ │   └── xmlbuilder@4.2.1 </tspan>
<tspan x="10" y="346">  │ ├── marked@0.3.6 </tspan>
<tspan x="10" y="362">  │ ├─┬ marked-terminal@1.7.0 </tspan>
<tspan x="10" y="378">  │ │ ├─┬ cardinal@1.0.0 </tspan>
<tspan x="10" y="394">  │ │ │ ├── ansicolors@0.2.1 </tspan>
<tspan x="10" y="410">  │ │ │ └─┬ redeyed@1.0.1 </tspan>
<tspan x="10" y="426">  │ │ │   └── esprima@3.0.0 </tspan>
<tspan x="10" y="442">  │ │ ├─┬ cli-table@0.3.1 </tspan>
<tspan x="10" y="458">  │ │ │ └── colors@1.0.3 </tspan>
<tspan x="10" y="474">  │ │ ├── lodash.assign@4.2.0 </tspan>
<tspan x="10" y="490">  │ │ └─┬ node-emoji@1.5.1 </tspan>
<tspan x="10" y="506">  │ │   └── string.prototype.codepointat@0.2.0 </tspan>
<tspan x="10" y="522">  │ ├─┬ memory-streams@0.1.2 </tspan>
<tspan x="10" y="538">  │ │ └─┬ readable-stream@1.0.34 </tspan>
<tspan x="10" y="554">  │ │   ├── core-util-is@1.0.2 </tspan>
<tspan x="10" y="570">  │ │   ├── inherits@2.0.3 </tspan>
<tspan x="10" y="586">  │ │   └── string_decoder@0.10.31 </tspan>
<tspan x="10" y="602">  │ ├── memorystream@0.3.1 </tspan>
<tspan x="10" y="618">  │ ├─┬ picture-tube@0.0.4 </tspan>
<tspan x="10" y="634">  │ │ ├── buffers@0.1.1 </tspan>
<tspan x="10" y="650">  │ │ ├── charm@0.1.2 </tspan>
<tspan x="10" y="666">  │ │ ├─┬ event-stream@0.9.8 </tspan>
<tspan x="10" y="682">  │ │ │ └── optimist@0.2.8 </tspan>
<tspan x="10" y="698">  │ │ ├─┬ optimist@0.3.7 </tspan>
<tspan x="10" y="714">  │ │ │ └── wordwrap@0.0.3 </tspan>
<tspan x="10" y="730">  │ │ ├── png-js@0.1.1 </tspan>
<tspan x="10" y="746">  │ │ └── request@2.9.203 </tspan>
<tspan x="10" y="762">  │ ├─┬ request@2.81.0 </tspan>
<tspan x="10" y="778">  │ │ ├── aws-sign2@0.6.0 </tspan>
<tspan x="10" y="794">  │ │ ├── aws4@1.6.0 </tspan>
<tspan x="10" y="810">  │ │ ├── caseless@0.12.0 </tspan>
<tspan x="10" y="826">  │ │ ├─┬ combined-stream@1.0.5 </tspan>
<tspan x="10" y="842">  │ │ │ └── delayed-stream@1.0.0 </tspan>
<tspan x="10" y="858">  │ │ ├── extend@3.0.0 </tspan>
<tspan x="10" y="874">  │ │ ├── forever-agent@0.6.1 </tspan>
<tspan x="10" y="890">  │ │ ├─┬ form-data@2.1.4 </tspan>
<tspan x="10" y="906">  │ │ │ └── asynckit@0.4.0 </tspan>
<tspan x="10" y="922">  │ │ ├─┬ har-validator@4.2.1 </tspan>
<tspan x="10" y="938">  │ │ │ ├─┬ ajv@4.11.7 </tspan>
<tspan x="10" y="954">  │ │ │ │ ├── co@4.6.0 </tspan>
<tspan x="10" y="970">  │ │ │ │ └─┬ json-stable-stringify@1.0.1 </tspan>
<tspan x="10" y="986">  │ │ │ │   └── jsonify@0.0.0 </tspan>
<tspan x="10" y="1002">  │ │ │ └── har-schema@1.0.5 </tspan>
<tspan x="10" y="1018">  │ │ ├─┬ hawk@3.1.3 </tspan>
<tspan x="10" y="1034">  │ │ │ ├── boom@2.10.1 </tspan>
<tspan x="10" y="1050">  │ │ │ ├── cryptiles@2.0.5 </tspan>
<tspan x="10" y="1066">  │ │ │ ├── hoek@2.16.3 </tspan>
<tspan x="10" y="1082">  │ │ │ └── sntp@1.0.9 </tspan>
<tspan x="10" y="1098">  │ │ ├─┬ http-signature@1.1.1 </tspan>
<tspan x="10" y="1114">  │ │ │ ├── assert-plus@0.2.0 </tspan>
<tspan x="10" y="1130">  │ │ │ ├─┬ jsprim@1.4.0 </tspan>
<tspan x="10" y="1146">  │ │ │ │ ├── assert-plus@1.0.0 </tspan>
<tspan x="10" y="1162">  │ │ │ │ ├── extsprintf@1.0.2 </tspan>
<tspan x="10" y="1178">  │ │ │ │ ├── json-schema@0.2.3 </tspan>
<tspan x="10" y="1194">  │ │ │ │ └── verror@1.3.6 </tspan>
<tspan x="10" y="1210">  │ │ │ └─┬ sshpk@1.13.0 </tspan>
<tspan x="10" y="1226">  │ │ │   ├── asn1@0.2.3 </tspan>
<tspan x="10" y="1242">  │ │ │   ├── assert-plus@1.0.0 </tspan>
<tspan x="10" y="1258">  │ │ │   ├── bcrypt-pbkdf@1.0.1 </tspan>
<tspan x="10" y="1274">  │ │ │   ├─┬ dashdash@1.14.1 </tspan>
<tspan x="10" y="1290">  │ │ │   │ └── assert-plus@1.0.0 </tspan>
<tspan x="10" y="1306">  │ │ │   ├── ecc-jsbn@0.1.1 </tspan>
<tspan x="10" y="1322">  │ │ │   ├─┬ getpass@0.1.6 </tspan>
<tspan x="10" y="1338">  │ │ │   │ └── assert-plus@1.0.0 </tspan>
<tspan x="10" y="1354">  │ │ │   ├── jodid25519@1.0.2 </tspan>
<tspan x="10" y="1370">  │ │ │   ├── jsbn@0.1.1 </tspan>
<tspan x="10" y="1386">  │ │ │   └── tweetnacl@0.14.5 </tspan>
<tspan x="10" y="1402">  │ │ ├── is-typedarray@1.0.0 </tspan>
<tspan x="10" y="1418">  │ │ ├── isstream@0.1.2 </tspan>
<tspan x="10" y="1434">  │ │ ├── json-stringify-safe@5.0.1 </tspan>
<tspan x="10" y="1450">  │ │ ├─┬ mime-types@2.1.15 </tspan>
<tspan x="10" y="1466">  │ │ │ └── mime-db@1.27.0 </tspan>
<tspan x="10" y="1482">  │ │ ├── oauth-sign@0.8.2 </tspan>
<tspan x="10" y="1498">  │ │ ├── performance-now@0.2.0 </tspan>
<tspan x="10" y="1514">  │ │ ├── qs@6.4.0 </tspan>
<tspan x="10" y="1530">  │ │ ├── safe-buffer@5.0.1 </tspan>
<tspan x="10" y="1546">  │ │ ├── stringstream@0.0.5 </tspan>
<tspan x="10" y="1562">  │ │ ├─┬ tough-cookie@2.3.2 </tspan>
<tspan x="10" y="1578">  │ │ │ └── punycode@1.4.1 </tspan>
<tspan x="10" y="1594">  │ │ ├── tunnel-agent@0.6.0 </tspan>
<tspan x="10" y="1610">  │ │ └── uuid@3.0.1 </tspan>
<tspan x="10" y="1626">  │ ├─┬ sparkline@0.1.2 </tspan>
<tspan x="10" y="1642">  │ │ ├── here@0.0.2 </tspan>
<tspan x="10" y="1658">  │ │ └─┬ nopt@2.1.2 </tspan>
<tspan x="10" y="1674">  │ │   └── abbrev@1.1.0 </tspan>
<tspan x="10" y="1690">  │ ├─┬ strip-ansi@3.0.1 </tspan>
<tspan x="10" y="1706">  │ │ └── ansi-regex@2.1.1 </tspan>
<tspan x="10" y="1722">  │ ├── term-canvas@0.0.5 </tspan>
<tspan x="10" y="1738">  │ └── x256@0.0.2 </tspan>
<tspan x="10" y="1754">  ├── blocked@1.2.1 </tspan>
<tspan x="10" y="1770">  ├─┬ commander@2.9.0 </tspan>
<tspan x="10" y="1786">  │ └── graceful-readlink@1.0.1 </tspan>
<tspan x="10" y="1802">  ├─┬ cross-spawn@4.0.2 </tspan>
<tspan x="10" y="1818">  │ ├─┬ lru-cache@4.0.2 </tspan>
<tspan x="10" y="1834">  │ │ ├── pseudomap@1.0.2 </tspan>
<tspan x="10" y="1850">  │ │ └── yallist@2.1.2 </tspan>
<tspan x="10" y="1866">  │ └─┬ which@1.2.14 </tspan>
<tspan x="10" y="1882">  │   └── isexe@2.0.0 </tspan>
<tspan x="10" y="1898">  ├── jsonschema@1.1.1 </tspan>
<tspan x="10" y="1914">  ├── lodash@4.17.4 </tspan>
<tspan x="10" y="1930">  ├── pidusage@1.1.1 </tspan>
<tspan x="10" y="1946">  ├─┬ pretty-bytes@3.0.1 </tspan>
<tspan x="10" y="1962">  │ └── number-is-nan@1.0.1 </tspan>
<tspan x="10" y="1978">  ├─┬ socket.io@1.7.3 </tspan>
<tspan x="10" y="1994">  │ ├─┬ debug@2.3.3 </tspan>
<tspan x="10" y="2010">  │ │ └── ms@0.7.2 </tspan>
<tspan x="10" y="2026">  │ ├─┬ engine.io@1.8.3 </tspan>
<tspan x="10" y="2042">  │ │ ├─┬ accepts@1.3.3 </tspan>
<tspan x="10" y="2058">  │ │ │ └── negotiator@0.6.1 </tspan>
<tspan x="10" y="2074">  │ │ ├── base64id@1.0.0 </tspan>
<tspan x="10" y="2090">  │ │ ├── cookie@0.3.1 </tspan>
<tspan x="10" y="2106">  │ │ ├─┬ engine.io-parser@1.3.2 </tspan>
<tspan x="10" y="2122">  │ │ │ ├── after@0.8.2 </tspan>
<tspan x="10" y="2138">  │ │ │ ├── arraybuffer.slice@0.0.6 </tspan>
<tspan x="10" y="2154">  │ │ │ ├── base64-arraybuffer@0.1.5 </tspan>
<tspan x="10" y="2170">  │ │ │ ├── blob@0.0.4 </tspan>
<tspan x="10" y="2186">  │ │ │ └── wtf-8@1.0.0 </tspan>
<tspan x="10" y="2202">  │ │ └─┬ ws@1.1.2 </tspan>
<tspan x="10" y="2218">  │ │   ├── options@0.0.6 </tspan>
<tspan x="10" y="2234">  │ │   └── ultron@1.0.2 </tspan>
<tspan x="10" y="2250">  │ ├─┬ has-binary@0.1.7 </tspan>
<tspan x="10" y="2266">  │ │ └── isarray@0.0.1 </tspan>
<tspan x="10" y="2282">  │ ├── object-assign@4.1.0 </tspan>
<tspan x="10" y="2298">  │ ├── socket.io-adapter@0.5.0 </tspan>
<tspan x="10" y="2314">  │ └─┬ socket.io-parser@2.3.1 </tspan>
<tspan x="10" y="2330">  │   ├── component-emitter@1.1.2 </tspan>
<tspan x="10" y="2346">  │   ├─┬ debug@2.2.0 </tspan>
<tspan x="10" y="2362">  │   │ └── ms@0.7.1 </tspan>
<tspan x="10" y="2378">  │   └── json3@3.3.2 </tspan>
<tspan x="10" y="2394">  └─┬ socket.io-client@1.7.3 </tspan>
<tspan x="10" y="2410">    ├── backo2@1.0.2 </tspan>
<tspan x="10" y="2426">    ├── component-bind@1.0.0 </tspan>
<tspan x="10" y="2442">    ├── component-emitter@1.2.1 </tspan>
<tspan x="10" y="2458">    ├─┬ engine.io-client@1.8.3 </tspan>
<tspan x="10" y="2474">    │ ├── component-emitter@1.2.1 </tspan>
<tspan x="10" y="2490">    │ ├── component-inherit@0.0.3 </tspan>
<tspan x="10" y="2506">    │ ├── has-cors@1.1.0 </tspan>
<tspan x="10" y="2522">    │ ├── parsejson@0.0.3 </tspan>
<tspan x="10" y="2538">    │ ├── parseqs@0.0.5 </tspan>
<tspan x="10" y="2554">    │ ├── xmlhttprequest-ssl@1.5.3 </tspan>
<tspan x="10" y="2570">    │ └── yeast@0.1.2 </tspan>
<tspan x="10" y="2586">    ├── indexof@0.0.1 </tspan>
<tspan x="10" y="2602">    ├── object-component@0.0.3 </tspan>
<tspan x="10" y="2618">    ├─┬ parseuri@0.0.5 </tspan>
<tspan x="10" y="2634">    │ └─┬ better-assert@1.0.2 </tspan>
<tspan x="10" y="2650">    │   └── callsite@1.0.0 </tspan>
<tspan x="10" y="2666">    └── to-array@0.1.4</tspan>
</text>
</svg>
